<svg id="MiMFa_aseqbase" data-name="MiMFa aseqbase" xmlns="http://www.w3.org/2000/svg" width="1000" height="127" viewBox="0 0 1000 127">
  <defs>
    <style>
      .cls-1 {
        fill: #187fc2;
      }

      .cls-1, .cls-2 {
        fill-rule: evenodd;
      }

      .cls-2 {
        fill: #3aa3e9;
      }
    </style>
  </defs>
  <g id="base">
    <path id="e" class="cls-1" d="M906.452,9.063a62.48,62.48,0,0,1,78.066,12.756c6.193,10.726,2.631,27.208-8.133,33.423L943.931,73.978h0L922.187,86.532c0.055-.031-10.693,6.318,7.862,13.315a37.319,37.319,0,0,0,26.375-4.231h0L989.04,76.786c-0.387.079,11.15-6.294,6.106,10.868A62.463,62.463,0,1,1,906.452,9.063Zm38.661,17.363A37.193,37.193,0,0,0,918.945,30.7c-8.31,4.8-14.433,12.193-16.862,20.751-3.12,19.637,7.666,13.41,7.774,13.348l43.379-25.045C953.074,39.849,963.892,33.6,945.113,26.426Z"/>
    <path id="s" class="cls-1" d="M782.839,65.2l21.744-12.554h0l32.453-18.737c10.764-6.215,26.819-1.058,33.012,9.667,0.011,0.035.022,0.07,0.034,0.1l-0.105.047,0.138-.023a62.468,62.468,0,0,1-66.783,81.759c-17.385-4.212-6.1-11.017-6.359-10.722l32.616-18.83h0A37.318,37.318,0,0,0,846.44,75.183c3.218-19.568-7.654-13.435-7.6-13.466L817.1,74.271h0L784.643,93.008c-10.758,6.211-26.8,1.064-33-9.649l-0.028.005A62.469,62.469,0,0,1,818.347,1.453c17.384,4.212,6.1,11.018,6.358,10.722L792.09,31.006h0a37.319,37.319,0,0,0-16.852,20.726C772.02,71.3,782.893,65.167,782.839,65.2Z"/>
    <path id="a" class="cls-1" d="M715.218,117.866a62.488,62.488,0,0,1-78.076-12.75c-6.192-10.725-2.628-27.209,8.138-33.424l32.459-18.741h0l21.748-12.556c-0.054.031,10.7-6.319-7.862-13.315a37.332,37.332,0,0,0-26.379,4.233h0L632.624,50.147c0.387-.079-11.152,6.295-6.106-10.868A62.467,62.467,0,1,1,715.218,117.866Zm-38.665-17.36a37.2,37.2,0,0,0,26.172-4.278c8.312-4.8,14.437-12.194,16.866-20.753,3.123-19.638-7.665-13.41-7.773-13.348L668.43,87.177C668.592,87.083,657.773,93.33,676.553,100.506Z"/>
    <path id="b" class="cls-1" d="M600.642,113.578c-27.577,20.73-64.584,14.917-75.631-14.639-39.763-41.766-29.459-53.087-68.123-85.678C449.548,7.073,438.1,1.323,438.1,1.323a60.176,60.176,0,0,1,37.438,12.164C489.306,24.595,495.351,35.9,495.351,35.9s40.788-30.126,30.217-22.179A62.466,62.466,0,1,1,600.642,113.578ZM567.215,26.226a37.5,37.5,0,1,1-9.068,74.45c-18.173-2.213-29.182-22.623-36.382-34.626-1.446-2.411-3.273-6.212-3-8.425,0.282-2.318,2.835-5.5,4.938-7.458C533.533,41.037,549.331,24.048,567.215,26.226Z"/>
  </g>
  <g id="aseq">
    <path id="q" class="cls-2" d="M400.5,13.582c27.723-20.437,55.837-19.224,86.834,31.307,21.97,31.69,35.856,55.625,56.831,70.8a77.965,77.965,0,0,0,18.857,10.18s-18.737,1.433-37.51-12.188c-10.2-7.361-19.73-22.388-19.737-22.4s-40.793,30.117-30.22,22.173a62.472,62.472,0,0,1-87.468-12.412C367.36,73.464,372.729,34.053,400.5,13.582Zm33.286,87.192a37.5,37.5,0,1,1,9.068-74.45c18.173,2.213,29.182,22.623,36.382,34.626,1.446,2.411,3.273,6.212,3,8.425-0.282,2.318-2.835,5.5-4.938,7.458C467.467,85.963,451.669,102.952,433.785,100.774Z"/>
    <path id="e-2" data-name="e" class="cls-2" d="M284.778,9.065a62.489,62.489,0,0,1,78.076,12.75c6.192,10.726,2.628,27.209-8.138,33.425L322.257,73.98h0L300.509,86.536c0.054-.031-10.7,6.319,7.862,13.315a37.33,37.33,0,0,0,26.379-4.233h0l32.622-18.834c-0.387.079,11.152-6.295,6.106,10.868A62.467,62.467,0,1,1,284.778,9.065Zm38.665,17.36A37.2,37.2,0,0,0,297.271,30.7C288.959,35.5,282.834,42.9,280.4,51.456c-3.123,19.638,7.665,13.41,7.773,13.348l43.388-25.05C331.4,39.848,342.223,33.6,323.443,26.425Z"/>
    <path id="s-2" data-name="s" class="cls-2" d="M217.157,61.733L195.413,74.286h0L162.96,93.023c-10.764,6.215-26.819,1.058-33.012-9.667-0.012-.035-0.022-0.07-0.034-0.105l0.105-.046-0.138.023a62.468,62.468,0,0,1,66.783-81.76c17.385,4.212,6.1,11.018,6.359,10.722L170.407,31.021h0a37.318,37.318,0,0,0-16.851,20.726c-3.218,19.568,7.654,13.435,7.6,13.466L182.9,52.66h0l32.453-18.737c10.758-6.211,26.8-1.064,33,9.649l0.027-.005a62.469,62.469,0,0,1-66.732,81.911c-17.384-4.212-6.1-11.018-6.358-10.722l32.615-18.831h0A37.324,37.324,0,0,0,224.758,75.2C227.976,55.631,217.1,61.764,217.157,61.733Z"/>
    <path id="a-2" data-name="a" class="cls-2" d="M93.544,117.868a62.481,62.481,0,0,1-78.066-12.756C9.285,94.386,12.847,77.9,23.611,71.69L56.065,52.953h0L77.809,40.4c-0.054.031,10.694-6.318-7.862-13.315a37.321,37.321,0,0,0-26.375,4.231h0L10.956,50.145c0.387-.079-11.151,6.294-6.106-10.868A62.463,62.463,0,1,1,93.544,117.868ZM54.883,100.505a37.193,37.193,0,0,0,26.168-4.276c8.31-4.8,14.434-12.192,16.862-20.751,3.12-19.637-7.665-13.41-7.773-13.348L46.76,87.176C46.922,87.082,36.1,93.328,54.883,100.505Z"/>
  </g>
</svg>
