<svg id="MiMFa_aseqbase" data-name="MiMFa aseqbase" xmlns="http://www.w3.org/2000/svg" width="996" height="923" viewBox="0 0 996 923">
  <defs>
    <style>
      .cls-1 {
        fill: #187fc2;
      }

      .cls-1, .cls-2 {
        fill-rule: evenodd;
      }

      .cls-2 {
        fill: #3aa3e9;
      }
    </style>
  </defs>
  <g id="base">
    <path id="e" class="cls-1" d="M906.452,805.063a62.48,62.48,0,0,1,78.066,12.756c6.193,10.725,2.631,27.208-8.133,33.422l-32.454,18.737h0l-21.744,12.554c0.055-.031-10.693,6.318,7.862,13.315a37.318,37.318,0,0,0,26.375-4.23h0l32.616-18.831c-0.387.079,11.15-6.294,6.106,10.868A62.463,62.463,0,1,1,906.452,805.063Zm38.661,17.363a37.191,37.191,0,0,0-26.168,4.275c-8.31,4.8-14.433,12.193-16.862,20.751-3.12,19.638,7.666,13.41,7.774,13.348l43.379-25.045C953.074,835.848,963.892,829.6,945.113,822.426Z"/>
    <path id="s" class="cls-1" d="M782.839,861.2l21.744-12.554h0l32.453-18.737c10.764-6.214,26.819-1.058,33.012,9.668,0.011,0.035.022,0.07,0.034,0.1l-0.105.046,0.138-.023a62.468,62.468,0,0,1-66.783,81.759c-17.385-4.212-6.1-11.017-6.359-10.722l32.616-18.83h0a37.319,37.319,0,0,0,16.851-20.727c3.218-19.567-7.654-13.435-7.6-13.466L817.1,870.271h0l-32.453,18.737c-10.758,6.211-26.8,1.064-33-9.649l-0.028,0a62.47,62.47,0,0,1,66.733-81.911c17.384,4.212,6.1,11.018,6.358,10.722L792.09,827.006h0a37.319,37.319,0,0,0-16.852,20.726C772.02,867.3,782.893,861.167,782.839,861.2Z"/>
    <path id="a" class="cls-1" d="M715.218,913.866a62.488,62.488,0,0,1-78.076-12.75c-6.192-10.725-2.628-27.209,8.138-33.425l32.459-18.74h0L699.487,836.4c-0.054.031,10.7-6.32-7.862-13.316a37.337,37.337,0,0,0-26.379,4.233h0l-32.622,18.835c0.387-.079-11.152,6.295-6.106-10.868A62.467,62.467,0,1,1,715.218,913.866Zm-38.665-17.36a37.2,37.2,0,0,0,26.172-4.278c8.312-4.8,14.437-12.194,16.866-20.753,3.123-19.639-7.665-13.411-7.773-13.348l-43.388,25.05C668.592,883.083,657.773,889.33,676.553,896.506Z"/>
    <path id="b" class="cls-1" d="M600.642,909.578c-27.577,20.73-64.584,14.917-75.631-14.639-39.763-41.767-29.459-53.087-68.123-85.678-7.34-6.188-18.79-11.938-18.79-11.938a60.173,60.173,0,0,1,37.438,12.164c13.77,11.107,19.815,22.41,19.815,22.41s40.788-30.125,30.217-22.179A62.466,62.466,0,1,1,600.642,909.578Zm-33.427-87.352a37.5,37.5,0,0,1-9.068,74.45c-18.173-2.214-29.182-22.623-36.382-34.626-1.446-2.412-3.273-6.213-3-8.425,0.282-2.318,2.835-5.5,4.938-7.458C533.533,837.037,549.331,820.048,567.215,822.226Z"/>
  </g>
  <g id="aseq">
    <path id="q" class="cls-2" d="M400.5,809.582c27.723-20.437,55.837-19.225,86.834,31.307,21.97,31.69,35.856,55.624,56.831,70.8a77.965,77.965,0,0,0,18.857,10.18s-18.737,1.433-37.51-12.188c-10.2-7.361-19.73-22.388-19.737-22.4s-40.793,30.117-30.22,22.173a62.472,62.472,0,0,1-87.468-12.412C367.36,869.464,372.729,830.053,400.5,809.582Zm33.286,87.192a37.5,37.5,0,1,1,9.068-74.45c18.173,2.214,29.182,22.623,36.382,34.626,1.446,2.412,3.273,6.213,3,8.425-0.282,2.318-2.835,5.5-4.938,7.458C467.467,881.963,451.669,898.952,433.785,896.774Z"/>
    <path id="b_copy" data-name="b copy" class="cls-1" d="M622.063,766.375C502.4,749.413,425.127,643.34,470.979,542.761c4.962-201.962,58.529-204.478,43.486-380.988-2.856-33.512-16.975-76.118-16.975-76.118s51.092,43.514,62.609,122.872c6.594,61.625-6.43,104.6-6.43,104.6s175.664,26.412,129.793,19.91C803.126,350,886.389,460.755,869.434,580.418S741.728,783.337,622.063,766.375ZM755.644,467.186a131.371,131.371,0,0,1-206.888,161.96c-39.532-50.5-16.245-128.328-4.347-175.9,2.39-9.557,7.281-23.5,13.43-28.31,6.441-5.042,20.659-6.614,30.706-6.242C635.519,420.437,716.739,417.49,755.644,467.186Z"/>
    <path id="q_copy" data-name="q copy" class="cls-2" d="M373.984,22.882c119.3,18.051,185.94,90.7,137.551,292.655-24.079,132.925-48.969,226.61-34.6,316.159,6.737,41.993,21.295,71.734,21.494,71.93,0,0-49.964-42.866-62.727-123.109-7.025-43.495,6.586-104.333,6.592-104.373,0,0-175.659-26.446-129.789-19.936C192.841,439.223,109.6,328.451,126.578,208.791S254.484,4.8,373.984,22.882ZM240.451,321.326a131.371,131.371,0,1,1,206.887-161.96c39.533,50.5,16.245,128.328,4.347,175.9-2.39,9.557-7.281,23.5-13.43,28.31-6.44,5.042-20.658,6.614-30.706,6.242C360.575,368.074,279.355,371.022,240.451,321.326Z"/>
    <path id="e-2" data-name="e" class="cls-2" d="M284.778,805.065a62.488,62.488,0,0,1,78.076,12.75c6.192,10.725,2.628,27.209-8.138,33.424L322.257,869.98h0l-21.748,12.556c0.054-.031-10.7,6.319,7.862,13.315a37.327,37.327,0,0,0,26.379-4.233h0l32.622-18.834c-0.387.079,11.152-6.295,6.106,10.868A62.467,62.467,0,1,1,284.778,805.065Zm38.665,17.36a37.2,37.2,0,0,0-26.172,4.278c-8.312,4.8-14.437,12.194-16.866,20.753-3.123,19.639,7.665,13.41,7.773,13.348l43.388-25.05C331.4,835.848,342.223,829.6,323.443,822.425Z"/>
    <path id="s-2" data-name="s" class="cls-2" d="M217.157,857.733l-21.744,12.553h0L162.96,889.023c-10.764,6.215-26.819,1.059-33.012-9.667-0.012-.035-0.022-0.07-0.034-0.105l0.105-.046-0.138.023a62.469,62.469,0,0,1,66.783-81.76c17.385,4.213,6.1,11.018,6.359,10.723l-32.616,18.83h0a37.321,37.321,0,0,0-16.851,20.726c-3.218,19.568,7.654,13.435,7.6,13.467L182.9,848.66h0l32.453-18.737c10.758-6.211,26.8-1.064,33,9.649l0.027,0a62.469,62.469,0,0,1-66.732,81.911c-17.384-4.212-6.1-11.018-6.358-10.722l32.615-18.831h0A37.323,37.323,0,0,0,224.758,871.2C227.976,851.631,217.1,857.764,217.157,857.733Z"/>
    <path id="a-2" data-name="a" class="cls-2" d="M93.544,913.868a62.481,62.481,0,0,1-78.066-12.756c-6.192-10.726-2.63-27.208,8.134-33.422l32.454-18.738h0L77.809,836.4c-0.054.031,10.694-6.318-7.862-13.316a37.325,37.325,0,0,0-26.375,4.231h0L10.956,846.145c0.387-.079-11.151,6.293-6.106-10.868A62.463,62.463,0,1,1,93.544,913.868ZM54.883,896.505a37.191,37.191,0,0,0,26.168-4.276c8.31-4.8,14.434-12.192,16.862-20.751,3.12-19.637-7.665-13.41-7.773-13.347L46.76,883.176C46.922,883.082,36.1,889.328,54.883,896.505Z"/>
  </g>
</svg>
