<svg xmlns="http://www.w3.org/2000/svg" width="256" height="256" viewBox="0 0 256 256">
  <defs>
    <style>
      .cls-1 {
        fill: #187fc2;
      }

      .cls-1, .cls-2 {
        fill-rule: evenodd;
      }

      .cls-2 {
        fill: #3aa3e9;
      }
    </style>
  </defs>
  <path id="b" class="cls-1" d="M169.511,253.252c-40.039-5.691-65.894-41.277-50.552-75.021,1.66-67.756,19.584-68.6,14.55-127.818-0.956-11.243-5.68-25.537-5.68-25.537s17.1,14.6,20.949,41.222c2.206,20.675-2.151,35.093-2.151,35.093s58.776,8.861,43.428,6.68A73.413,73.413,0,0,1,169.511,253.252Zm44.695-100.376a44,44,0,1,1-69.223,54.336c-13.227-16.941-5.436-43.052-1.455-59.011,0.8-3.206,2.436-7.883,4.494-9.5,2.155-1.691,6.912-2.219,10.274-2.094C174.013,137.193,201.189,136.2,214.206,152.876Z"/>
  <path id="q" class="cls-2" d="M86.505,3.817C126.422,9.872,148.72,34.245,132.529,102c-8.057,44.6-16.385,76.025-11.578,106.068a91.805,91.805,0,0,0,7.192,24.132s-16.718-14.381-20.988-41.3c-2.351-14.592,2.2-35,2.2-35.016s-58.774-8.873-43.427-6.688A73.391,73.391,0,0,1,3.724,66.187C9.4,26.043,46.521-2.249,86.505,3.817ZM41.826,103.942a44,44,0,1,1,69.224-54.336c13.227,16.942,5.435,43.053,1.454,59.011-0.8,3.207-2.436,7.883-4.493,9.5-2.155,1.692-6.913,2.219-10.274,2.094C82.018,119.625,54.843,120.614,41.826,103.942Z"/>
</svg>
