<svg  fill="rgba(0,51,102,0.41)" viewBox="0 0 1920 1440" preserveAspectRatio="xMinYMin slice" xmlns="http://www.w3.org/2000/svg"><path d="M1354.19,697.54,817.48,1440H525l637.07-881.3a118.5,118.5,0,0,1,165.46-26.62h0A118.51,118.51,0,0,1,1354.19,697.54Zm7-212.3h0a118.49,118.49,0,0,0,165.45-26.61L1858.16,0H1565.72L1334.55,319.78A118.5,118.5,0,0,0,1361.17,485.24Zm-3.6,519.84h0a118.5,118.5,0,0,0-165.46,26.62L897,1440H1189.4l194.79-269.46A118.51,118.51,0,0,0,1357.57,1005.08Zm33.6-46.84h0a118.49,118.49,0,0,0,165.45-26.61L1920,429V24.4L1364.55,792.78A118.5,118.5,0,0,0,1391.17,958.24Zm306.4,89.84h0a118.5,118.5,0,0,0-165.46,26.62L1268.05,1440h292.43l163.71-226.46A118.51,118.51,0,0,0,1697.57,1048.08Zm7-212.3a118.5,118.5,0,0,0,26.62,165.46h0a118.49,118.49,0,0,0,165.45-26.61L1920,942.29V537.74Z"/></svg>