<svg xmlns="http://www.w3.org/2000/svg" width="256" height="256" viewBox="0 0 256 256">
  <defs>
    <style>
      .cls-1 {
        fill: #e23c30;
      }

      .cls-1, .cls-2, .cls-3, .cls-4 {
        fill-rule: evenodd;
      }

      .cls-2 {
        fill: #1e8ad1;
      }

      .cls-3 {
        fill: #edb818;
      }

      .cls-4 {
        fill: #54d044;
      }
    </style>
  </defs>
  <path class="cls-1" d="M73.42,135.423c-5.45,19.168-1.833,29.421,4.6,36.416,7.136,7.136,20.43,10.258,37.124,5.3A29.5,29.5,0,0,1,73.42,135.423Z"/>
  <path id="Ellipse_1_copy_2" data-name="Ellipse 1 copy 2" class="cls-2" d="M143.357,15.335C134.875-2.7,125.412-8.052,115.97-9.1,105.9-9.8,93.827-3.417,84.5,11.285A29.5,29.5,0,1,1,143.357,15.335Z"/>
  <path id="Ellipse_1_copy_4" data-name="Ellipse 1 copy 4" class="cls-3" d="M167.62,115.466c18.514,7.372,29.082,4.817,36.695-.867,7.825-6.373,12.284-19.28,9.053-36.391A29.5,29.5,0,0,1,167.62,115.466Z"/>
  <path id="Ellipse_1_copy_3" data-name="Ellipse 1 copy 3" class="cls-2" d="M143.357,271.335c-8.482-18.032-17.945-23.387-27.387-24.438-10.069-.692-22.143,5.686-31.474,20.388A29.5,29.5,0,0,1,143.357,271.335Z"/>
  <path class="cls-4" d="M254.211,86c14.256-13.875,16.244-24.563,14.18-33.835-2.6-9.748-12.521-19.1-29.4-23.154A29.493,29.493,0,0,1,254.211,86Z"/>
  <path id="Ellipse_1_copy" data-name="Ellipse 1 copy" class="cls-4" d="M-2.789,86c14.256-13.875,16.243-24.563,14.18-33.835-2.6-9.748-12.521-19.1-29.4-23.154A29.391,29.391,0,0,1,18,49.87,29.51,29.51,0,0,1-2.789,86Z"/>
  <path id="Ellipse_1_copy_5" data-name="Ellipse 1 copy 5" class="cls-1" d="M176.679,34.155c3.374,8.879,7.676,11.768,12.126,12.611,4.759,0.7,10.73-1.9,15.7-8.543A14.061,14.061,0,1,1,176.679,34.155Z"/>
  <path id="Ellipse_1_copy_5-2" data-name="Ellipse 1 copy 5" class="cls-2" d="M24.012,128.371c9.626-.148,13.864-3.158,16.2-6.99,2.306-4.169,1.9-10.558-2.724-17.379a13.623,13.623,0,0,1,5.818,18.724A14.476,14.476,0,0,1,24.012,128.371Z"/>
  <path id="Ellipse_1_copy_5-3" data-name="Ellipse 1 copy 5" class="cls-3" d="M241.337,224.037c-9.355,1.643-13,5.324-14.669,9.535-1.579,4.544-.158,10.9,5.435,17.028A14.061,14.061,0,0,1,241.337,224.037Z"/>
  <path id="Ellipse_1_copy_5-4" data-name="Ellipse 1 copy 5" class="cls-4" d="M128.856,100.26c-3.749-8.709-8.169-11.414-12.648-12.074-4.783-.5-10.635,2.322-15.315,9.145A14.058,14.058,0,0,1,128.856,100.26Z"/>
  <path id="Ellipse_1_copy_6" data-name="Ellipse 1 copy 6" class="cls-1" d="M37.481,239.411c-6.178-7.215-11.2-8.48-15.676-7.77-4.715.955-9.458,5.412-11.888,13.348A14.061,14.061,0,1,1,37.481,239.411Z"/>
  <path id="Ellipse_1_copy_6-2" data-name="Ellipse 1 copy 6" class="cls-2" d="M243.822,128.274c-5.5,7.743-5.509,12.926-3.735,17.092,2.07,4.343,7.545,7.862,15.834,8.295A14.061,14.061,0,1,1,243.822,128.274Z"/>
  <path id="Ellipse_1_copy_6-3" data-name="Ellipse 1 copy 6" class="cls-3" d="M37.335,41.913c8.315-4.592,10.569-9.258,10.777-13.782,0.018-4.811-3.389-10.356-10.67-14.34A14.061,14.061,0,1,1,37.335,41.913Z"/>
  <path id="Ellipse_1_copy_6-4" data-name="Ellipse 1 copy 6" class="cls-4" d="M163.166,187c3.379,8.809,7.684,11.683,12.136,12.529,4.763,0.7,10.737-1.857,15.708-8.436A14.072,14.072,0,0,1,163.166,187Z"/>
</svg>
